<svg width="1548" height="1554" viewBox="0 0 1548 1554" fill="none" xmlns="http://www.w3.org/2000/svg">
<mask id="path-1-inside-1_2474_129" fill="white">
<path d="M1536.91 670.415C1534.73 633.346 1538.49 597.268 1548 561.785C1469.76 500.928 1448.37 418.266 1383.2 346.11C1336.65 294.57 1267.32 280.694 1204.53 310.825C1154.22 335.009 1111.63 370.889 1077.16 415.094C1065.08 430.556 1053 444.234 1043.09 461.48C1030.81 483.285 1044.68 514.011 1020.71 545.53C983.668 594.294 945.439 641.275 901.861 685.877C927.81 635.13 969.407 598.656 995.355 546.917C953.362 584.383 928.206 634.337 886.213 672.794C913.152 629.58 949.797 580.022 975.349 542.16C977.33 539.385 973.17 533.438 972.18 534.627L968.812 538.592L871.951 663.675C896.315 611.54 935.337 572.886 958.512 520.156L856.105 652.178C867.197 624.822 951.778 486.061 970.397 477.14L1017.54 454.344C1032.59 447.009 1040.32 428.574 1050.03 414.698C1084.1 366.528 1108.06 313.799 1117.57 255.915C1128.86 186.733 1097.96 122.903 1035.17 92.1771C1007.24 78.4992 978.122 70.57 947.618 62.6408L857.095 38.8531C827.185 30.9239 800.048 15.8584 773.703 0C692.094 55.3063 594.836 52.1345 512.435 92.1771C449.643 122.705 418.544 186.931 429.835 256.114C439.739 316.97 465.688 371.285 501.738 421.239C510.058 432.935 516.792 448.397 529.668 454.542L577.009 477.339C596.025 486.457 676.445 619.271 691.301 651.781C652.676 612.333 629.5 561.19 588.894 520.156C612.069 573.282 651.487 612.532 675.653 664.27L575.622 534.627C572.651 536.808 569.878 538.79 569.878 538.79C569.878 538.79 571.859 541.763 572.255 542.358L661.985 673.587C619.794 635.526 595.034 585.374 552.249 547.314C578.197 598.854 620.191 635.725 645.743 686.273C601.571 641.275 563.738 594.493 526.895 545.926C502.531 513.813 516.792 480.312 504.709 461.678C462.518 397.452 406.858 338.379 335.747 307.852C277.709 282.875 214.323 295.76 170.151 340.758C104.587 407.363 78.8361 501.721 0 561.983C26.5428 655.548 -2.57503 734.84 5.74436 829.396C12.0829 900.759 61.8012 955.074 132.516 967.562C192.534 978.068 252.355 971.329 310.789 953.091C325.843 948.334 344.66 947.145 355.555 936.044L395.171 895.605C408.442 881.927 565.322 844.659 595.43 841.884C544.722 866.861 490.25 872.213 439.145 898.974C440.729 906.309 620.785 848.228 599.59 862.104C598.996 862.5 596.421 864.284 594.638 864.879L452.218 914.436C449.841 915.229 446.474 919.591 447.86 920.582C448.851 921.176 452.218 922.366 453.407 922.167L606.127 877.367C556.211 905.516 501.54 913.644 452.614 942.387C509.662 933.665 557.597 905.714 613.258 896.398C557.003 924.546 501.54 945.559 444.295 965.976C405.867 979.654 377.938 955.867 357.139 961.219C283.85 980.249 210.362 1016.13 159.653 1072.62C118.65 1118.22 108.548 1180.66 134.893 1235.97C145.589 1258.17 158.465 1278.39 174.113 1297.42L243.837 1381.86C266.22 1409.02 283.057 1438.36 295.536 1472.26C331.587 1474.83 365.261 1480.78 398.736 1494.06L507.087 1536.88C527.291 1544.81 547.891 1549.37 569.284 1552.34C629.5 1560.67 685.953 1532.52 716.854 1480.58C757.857 1411.2 763.799 1343.41 763.997 1263.92C763.997 1240.13 734.879 1211.58 733.493 1194.93C728.739 1140.42 738.048 1049.43 745.179 991.35C753.895 1046.85 741.614 1100.18 751.518 1158.46C763.403 1103.15 755.281 1048.84 765.582 992.936C772.316 1046.06 764.393 1103.75 773.505 1157.67C777.863 1145.18 778.457 1133.88 778.655 1122.18L781.23 994.72C782.419 995.711 784.201 997.098 785.39 997.891L793.313 1151.72C793.313 1154.3 796.086 1157.07 796.878 1157.07C797.671 1157.07 800.246 1154.1 800.246 1152.71V999.279C801.632 994.125 802.028 993.134 804.603 993.729L813.319 1099.19C816.092 1131.7 818.073 1163.81 814.112 1196.12C811.933 1214.56 783.211 1239.14 783.805 1266.69C784.399 1295.24 784.796 1322.39 788.361 1350.54C794.501 1398.91 808.565 1444.9 834.316 1485.54C867.395 1537.47 925.631 1562.25 986.045 1551.55C1076.17 1535.69 1153.23 1475.63 1252.27 1472.45C1265.54 1437.37 1283.76 1406.25 1307.53 1377.5L1370.12 1301.78C1386.76 1281.56 1400.83 1260.74 1412.31 1237.16C1439.45 1181.65 1429.55 1118.61 1388.15 1072.43C1337.64 1015.93 1265.74 981.637 1192.64 961.219C1170.66 955.074 1141.93 979.456 1103.51 965.778C1046.26 945.559 990.998 924.15 934.545 896.001C990.007 905.318 1038.14 933.467 1095.19 941.792C1045.27 913.644 990.997 904.525 941.081 876.971L1094.2 921.771C1095.78 922.167 1100.93 920.582 1100.14 918.996C1099.74 917.806 1096.77 914.833 1094.59 914.04L946.231 861.509C1001.89 866.465 1051.41 894.019 1109.05 897.983C1057.75 875.583 1007.24 864.086 956.73 845.452C953.956 844.065 953.758 843.668 956.531 841.488C1016.15 853.778 1073.6 867.06 1130.84 885.098C1185.31 902.344 1163.72 929.105 1205.92 943.576C1268.11 964.787 1331.5 976.086 1396.86 970.337C1456.29 964.985 1508.19 932.277 1530.37 876.178C1542.45 845.651 1545.23 812.546 1543.05 779.64L1536.31 670.415H1536.91ZM1185.31 699.555C1178.38 747.13 1097.17 782.613 1054.19 793.516C1031.8 799.265 1009.42 791.137 991.79 777.063C984.461 771.314 974.557 765.962 965.445 762.79L837.881 806.401C839.268 824.638 831.74 841.686 822.233 855.76L860.859 910.472C873.932 928.907 887.005 947.937 901.465 965.778C932.96 975.888 956.729 958.444 988.818 992.737C1005.66 1010.78 1017.54 1031.99 1028.43 1054.39C1041.11 1080.16 1049.63 1108.5 1043.49 1137.25C1037.74 1163.61 1008.82 1175.31 984.263 1167.18C942.27 1153.3 908.596 1116.83 884.034 1081.94C848.379 1031.39 890.769 992.936 878.686 977.077L799.255 871.619C780.636 878.953 765.186 877.566 747.556 872.015L667.136 979.258C668.522 1016.92 694.075 1038.93 662.382 1083.13C639.404 1115.44 612.663 1143.79 577.207 1162.03C554.824 1173.52 527.885 1173.52 511.444 1152.91C480.544 1114.05 526.3 1032.78 553.437 998.09C571.661 974.698 598.6 966.175 627.52 968.95C638.414 969.941 647.526 965.382 653.666 956.858L725.371 855.364C713.883 841.29 708.931 824.44 709.129 805.806L581.763 762.196C548.881 774.288 535.61 804.815 489.061 791.93C441.324 778.847 336.341 731.073 366.845 671.406C390.615 625.02 490.448 644.447 533.629 662.089C584.932 683.102 571.463 734.245 593.45 741.183L718.637 779.64C728.739 762.592 742.802 754.465 760.035 749.509L761.422 632.751C761.422 617.884 760.63 606.981 745.576 598.259C724.579 585.969 707.346 564.758 705.365 538.79C701.8 493.594 712.298 379.016 775.684 381.197C834.712 383.377 845.012 493.792 841.645 538.592C839.664 564.758 822.431 585.572 801.632 598.259C785.984 607.774 785.39 617.091 785.588 632.751L787.173 749.311C804.802 755.059 819.856 764.574 828.769 780.829C844.021 775.279 858.68 769.927 874.328 765.367L943.458 744.751C957.72 740.589 966.634 731.866 969.803 716.801C975.745 687.859 995.157 667.64 1022.89 658.323C1061.51 645.24 1102.71 638.698 1142.93 646.231C1169.47 651.187 1189.08 672.397 1185.12 699.158L1185.31 699.555Z"/>
</mask>
<path d="M1536.91 670.415C1534.73 633.346 1538.49 597.268 1548 561.785C1469.76 500.928 1448.37 418.266 1383.2 346.11C1336.65 294.57 1267.32 280.694 1204.53 310.825C1154.22 335.009 1111.63 370.889 1077.16 415.094C1065.08 430.556 1053 444.234 1043.09 461.48C1030.81 483.285 1044.68 514.011 1020.71 545.53C983.668 594.294 945.439 641.275 901.861 685.877C927.81 635.13 969.407 598.656 995.355 546.917C953.362 584.383 928.206 634.337 886.213 672.794C913.152 629.58 949.797 580.022 975.349 542.16C977.33 539.385 973.17 533.438 972.18 534.627L968.812 538.592L871.951 663.675C896.315 611.54 935.337 572.886 958.512 520.156L856.105 652.178C867.197 624.822 951.778 486.061 970.397 477.14L1017.54 454.344C1032.59 447.009 1040.32 428.574 1050.03 414.698C1084.1 366.528 1108.06 313.799 1117.57 255.915C1128.86 186.733 1097.96 122.903 1035.17 92.1771C1007.24 78.4992 978.122 70.57 947.618 62.6408L857.095 38.8531C827.185 30.9239 800.048 15.8584 773.703 0C692.094 55.3063 594.836 52.1345 512.435 92.1771C449.643 122.705 418.544 186.931 429.835 256.114C439.739 316.97 465.688 371.285 501.738 421.239C510.058 432.935 516.792 448.397 529.668 454.542L577.009 477.339C596.025 486.457 676.445 619.271 691.301 651.781C652.676 612.333 629.5 561.19 588.894 520.156C612.069 573.282 651.487 612.532 675.653 664.27L575.622 534.627C572.651 536.808 569.878 538.79 569.878 538.79C569.878 538.79 571.859 541.763 572.255 542.358L661.985 673.587C619.794 635.526 595.034 585.374 552.249 547.314C578.197 598.854 620.191 635.725 645.743 686.273C601.571 641.275 563.738 594.493 526.895 545.926C502.531 513.813 516.792 480.312 504.709 461.678C462.518 397.452 406.858 338.379 335.747 307.852C277.709 282.875 214.323 295.76 170.151 340.758C104.587 407.363 78.8361 501.721 0 561.983C26.5428 655.548 -2.57503 734.84 5.74436 829.396C12.0829 900.759 61.8012 955.074 132.516 967.562C192.534 978.068 252.355 971.329 310.789 953.091C325.843 948.334 344.66 947.145 355.555 936.044L395.171 895.605C408.442 881.927 565.322 844.659 595.43 841.884C544.722 866.861 490.25 872.213 439.145 898.974C440.729 906.309 620.785 848.228 599.59 862.104C598.996 862.5 596.421 864.284 594.638 864.879L452.218 914.436C449.841 915.229 446.474 919.591 447.86 920.582C448.851 921.176 452.218 922.366 453.407 922.167L606.127 877.367C556.211 905.516 501.54 913.644 452.614 942.387C509.662 933.665 557.597 905.714 613.258 896.398C557.003 924.546 501.54 945.559 444.295 965.976C405.867 979.654 377.938 955.867 357.139 961.219C283.85 980.249 210.362 1016.13 159.653 1072.62C118.65 1118.22 108.548 1180.66 134.893 1235.97C145.589 1258.17 158.465 1278.39 174.113 1297.42L243.837 1381.86C266.22 1409.02 283.057 1438.36 295.536 1472.26C331.587 1474.83 365.261 1480.78 398.736 1494.06L507.087 1536.88C527.291 1544.81 547.891 1549.37 569.284 1552.34C629.5 1560.67 685.953 1532.52 716.854 1480.58C757.857 1411.2 763.799 1343.41 763.997 1263.92C763.997 1240.13 734.879 1211.58 733.493 1194.93C728.739 1140.42 738.048 1049.43 745.179 991.35C753.895 1046.85 741.614 1100.18 751.518 1158.46C763.403 1103.15 755.281 1048.84 765.582 992.936C772.316 1046.06 764.393 1103.75 773.505 1157.67C777.863 1145.18 778.457 1133.88 778.655 1122.18L781.23 994.72C782.419 995.711 784.201 997.098 785.39 997.891L793.313 1151.72C793.313 1154.3 796.086 1157.07 796.878 1157.07C797.671 1157.07 800.246 1154.1 800.246 1152.71V999.279C801.632 994.125 802.028 993.134 804.603 993.729L813.319 1099.19C816.092 1131.7 818.073 1163.81 814.112 1196.12C811.933 1214.56 783.211 1239.14 783.805 1266.69C784.399 1295.24 784.796 1322.39 788.361 1350.54C794.501 1398.91 808.565 1444.9 834.316 1485.54C867.395 1537.47 925.631 1562.25 986.045 1551.55C1076.17 1535.69 1153.23 1475.63 1252.27 1472.45C1265.54 1437.37 1283.76 1406.25 1307.53 1377.5L1370.12 1301.78C1386.76 1281.56 1400.83 1260.74 1412.31 1237.16C1439.45 1181.65 1429.55 1118.61 1388.15 1072.43C1337.64 1015.93 1265.74 981.637 1192.64 961.219C1170.66 955.074 1141.93 979.456 1103.51 965.778C1046.26 945.559 990.998 924.15 934.545 896.001C990.007 905.318 1038.14 933.467 1095.19 941.792C1045.27 913.644 990.997 904.525 941.081 876.971L1094.2 921.771C1095.78 922.167 1100.93 920.582 1100.14 918.996C1099.74 917.806 1096.77 914.833 1094.59 914.04L946.231 861.509C1001.89 866.465 1051.41 894.019 1109.05 897.983C1057.75 875.583 1007.24 864.086 956.73 845.452C953.956 844.065 953.758 843.668 956.531 841.488C1016.15 853.778 1073.6 867.06 1130.84 885.098C1185.31 902.344 1163.72 929.105 1205.92 943.576C1268.11 964.787 1331.5 976.086 1396.86 970.337C1456.29 964.985 1508.19 932.277 1530.37 876.178C1542.45 845.651 1545.23 812.546 1543.05 779.64L1536.31 670.415H1536.91ZM1185.31 699.555C1178.38 747.13 1097.17 782.613 1054.19 793.516C1031.8 799.265 1009.42 791.137 991.79 777.063C984.461 771.314 974.557 765.962 965.445 762.79L837.881 806.401C839.268 824.638 831.74 841.686 822.233 855.76L860.859 910.472C873.932 928.907 887.005 947.937 901.465 965.778C932.96 975.888 956.729 958.444 988.818 992.737C1005.66 1010.78 1017.54 1031.99 1028.43 1054.39C1041.11 1080.16 1049.63 1108.5 1043.49 1137.25C1037.74 1163.61 1008.82 1175.31 984.263 1167.18C942.27 1153.3 908.596 1116.83 884.034 1081.94C848.379 1031.39 890.769 992.936 878.686 977.077L799.255 871.619C780.636 878.953 765.186 877.566 747.556 872.015L667.136 979.258C668.522 1016.92 694.075 1038.93 662.382 1083.13C639.404 1115.44 612.663 1143.79 577.207 1162.03C554.824 1173.52 527.885 1173.52 511.444 1152.91C480.544 1114.05 526.3 1032.78 553.437 998.09C571.661 974.698 598.6 966.175 627.52 968.95C638.414 969.941 647.526 965.382 653.666 956.858L725.371 855.364C713.883 841.29 708.931 824.44 709.129 805.806L581.763 762.196C548.881 774.288 535.61 804.815 489.061 791.93C441.324 778.847 336.341 731.073 366.845 671.406C390.615 625.02 490.448 644.447 533.629 662.089C584.932 683.102 571.463 734.245 593.45 741.183L718.637 779.64C728.739 762.592 742.802 754.465 760.035 749.509L761.422 632.751C761.422 617.884 760.63 606.981 745.576 598.259C724.579 585.969 707.346 564.758 705.365 538.79C701.8 493.594 712.298 379.016 775.684 381.197C834.712 383.377 845.012 493.792 841.645 538.592C839.664 564.758 822.431 585.572 801.632 598.259C785.984 607.774 785.39 617.091 785.588 632.751L787.173 749.311C804.802 755.059 819.856 764.574 828.769 780.829C844.021 775.279 858.68 769.927 874.328 765.367L943.458 744.751C957.72 740.589 966.634 731.866 969.803 716.801C975.745 687.859 995.157 667.64 1022.89 658.323C1061.51 645.24 1102.71 638.698 1142.93 646.231C1169.47 651.187 1189.08 672.397 1185.12 699.158L1185.31 699.555Z" stroke="#60A670" stroke-width="6" mask="url(#path-1-inside-1_2474_129)"/>
</svg>
