<svg width="79" height="79" viewBox="0 0 79 79" fill="none" xmlns="http://www.w3.org/2000/svg">
<mask id="path-1-inside-1_2467_260" fill="white">
<path d="M77.59 33.82C77.48 31.95 77.67 30.13 78.15 28.34C74.2 25.27 73.12 21.1 69.83 17.46C67.48 14.86 63.98 14.16 60.81 15.68C58.27 16.9 56.12 18.71 54.38 20.94C53.77 21.72 53.16 22.41 52.66 23.28C52.04 24.38 52.74 25.93 51.53 27.52C49.66 29.98 47.73 32.35 45.53 34.6C46.84 32.04 48.94 30.2 50.25 27.59C48.13 29.48 46.86 32 44.74 33.94C46.1 31.76 47.95 29.26 49.24 27.35C49.34 27.21 49.13 26.91 49.08 26.97L48.91 27.17L44.02 33.48C45.25 30.85 47.22 28.9 48.39 26.24L43.22 32.9C43.78 31.52 48.05 24.52 48.99 24.07L51.37 22.92C52.13 22.55 52.52 21.62 53.01 20.92C54.73 18.49 55.94 15.83 56.42 12.91C56.99 9.42 55.43 6.2 52.26 4.65C50.85 3.96 49.38 3.56 47.84 3.16L43.27 1.96C41.76 1.56 40.39 0.8 39.06 0C34.94 2.79 30.03 2.63 25.87 4.65C22.7 6.19 21.13 9.43 21.7 12.92C22.2 15.99 23.51 18.73 25.33 21.25C25.75 21.84 26.09 22.62 26.74 22.93L29.13 24.08C30.09 24.54 34.15 31.24 34.9 32.88C32.95 30.89 31.78 28.31 29.73 26.24C30.9 28.92 32.89 30.9 34.11 33.51L29.06 26.97C28.91 27.08 28.77 27.18 28.77 27.18C28.77 27.18 28.87 27.33 28.89 27.36L33.42 33.98C31.29 32.06 30.04 29.53 27.88 27.61C29.19 30.21 31.31 32.07 32.6 34.62C30.37 32.35 28.46 29.99 26.6 27.54C25.37 25.92 26.09 24.23 25.48 23.29C23.35 20.05 20.54 17.07 16.95 15.53C14.02 14.27 10.82 14.92 8.59 17.19C5.28 20.55 3.98 25.31 0 28.35C1.34 33.07 -0.129999 37.07 0.290001 41.84C0.610001 45.44 3.12 48.18 6.69 48.81C9.72 49.34 12.74 49 15.69 48.08C16.45 47.84 17.4 47.78 17.95 47.22L19.95 45.18C20.62 44.49 28.54 42.61 30.06 42.47C27.5 43.73 24.75 44 22.17 45.35C22.25 45.72 31.34 42.79 30.27 43.49C30.24 43.51 30.11 43.6 30.02 43.63L22.83 46.13C22.71 46.17 22.54 46.39 22.61 46.44C22.66 46.47 22.83 46.53 22.89 46.52L30.6 44.26C28.08 45.68 25.32 46.09 22.85 47.54C25.73 47.1 28.15 45.69 30.96 45.22C28.12 46.64 25.32 47.7 22.43 48.73C20.49 49.42 19.08 48.22 18.03 48.49C14.33 49.45 10.62 51.26 8.06 54.11C5.99 56.41 5.48 59.56 6.81 62.35C7.35 63.47 8 64.49 8.79 65.45L12.31 69.71C13.44 71.08 14.29 72.56 14.92 74.27C16.74 74.4 18.44 74.7 20.13 75.37L25.6 77.53C26.62 77.93 27.66 78.16 28.74 78.31C31.78 78.73 34.63 77.31 36.19 74.69C38.26 71.19 38.56 67.77 38.57 63.76C38.57 62.56 37.1 61.12 37.03 60.28C36.79 57.53 37.26 52.94 37.62 50.01C38.06 52.81 37.44 55.5 37.94 58.44C38.54 55.65 38.13 52.91 38.65 50.09C38.99 52.77 38.59 55.68 39.05 58.4C39.27 57.77 39.3 57.2 39.31 56.61L39.44 50.18C39.5 50.23 39.59 50.3 39.65 50.34L40.05 58.1C40.05 58.23 40.19 58.37 40.23 58.37C40.27 58.37 40.4 58.22 40.4 58.15V50.41C40.47 50.15 40.49 50.1 40.62 50.13L41.06 55.45C41.2 57.09 41.3 58.71 41.1 60.34C40.99 61.27 39.54 62.51 39.57 63.9C39.6 65.34 39.62 66.71 39.8 68.13C40.11 70.57 40.82 72.89 42.12 74.94C43.79 77.56 46.73 78.81 49.78 78.27C54.33 77.47 58.22 74.44 63.22 74.28C63.89 72.51 64.81 70.94 66.01 69.49L69.17 65.67C70.01 64.65 70.72 63.6 71.3 62.41C72.67 59.61 72.17 56.43 70.08 54.1C67.53 51.25 63.9 49.52 60.21 48.49C59.1 48.18 57.65 49.41 55.71 48.72C52.82 47.7 50.03 46.62 47.18 45.2C49.98 45.67 52.41 47.09 55.29 47.51C52.77 46.09 50.03 45.63 47.51 44.24L55.24 46.5C55.32 46.52 55.58 46.44 55.54 46.36C55.52 46.3 55.37 46.15 55.26 46.11L47.77 43.46C50.58 43.71 53.08 45.1 55.99 45.3C53.4 44.17 50.85 43.59 48.3 42.65C48.16 42.58 48.15 42.56 48.29 42.45C51.3 43.07 54.2 43.74 57.09 44.65C59.84 45.52 58.75 46.87 60.88 47.6C64.02 48.67 67.22 49.24 70.52 48.95C73.52 48.68 76.14 47.03 77.26 44.2C77.87 42.66 78.01 40.99 77.9 39.33L77.56 33.82H77.59ZM59.84 35.29C59.49 37.69 55.39 39.48 53.22 40.03C52.09 40.32 50.96 39.91 50.07 39.2C49.7 38.91 49.2 38.64 48.74 38.48L42.3 40.68C42.37 41.6 41.99 42.46 41.51 43.17L43.46 45.93C44.12 46.86 44.78 47.82 45.51 48.72C47.1 49.23 48.3 48.35 49.92 50.08C50.77 50.99 51.37 52.06 51.92 53.19C52.56 54.49 52.99 55.92 52.68 57.37C52.39 58.7 50.93 59.29 49.69 58.88C47.57 58.18 45.87 56.34 44.63 54.58C42.83 52.03 44.97 50.09 44.36 49.29L40.35 43.97C39.41 44.34 38.63 44.27 37.74 43.99L33.68 49.4C33.75 51.3 35.04 52.41 33.44 54.64C32.28 56.27 30.93 57.7 29.14 58.62C28.01 59.2 26.65 59.2 25.82 58.16C24.26 56.2 26.57 52.1 27.94 50.35C28.86 49.17 30.22 48.74 31.68 48.88C32.23 48.93 32.69 48.7 33 48.27L36.62 43.15C36.04 42.44 35.79 41.59 35.8 40.65L29.37 38.45C27.71 39.06 27.04 40.6 24.69 39.95C22.28 39.29 16.98 36.88 18.52 33.87C19.72 31.53 24.76 32.51 26.94 33.4C29.53 34.46 28.85 37.04 29.96 37.39L36.28 39.33C36.79 38.47 37.5 38.06 38.37 37.81L38.44 31.92C38.44 31.17 38.4 30.62 37.64 30.18C36.58 29.56 35.71 28.49 35.61 27.18C35.43 24.9 35.96 19.12 39.16 19.23C42.14 19.34 42.66 24.91 42.49 27.17C42.39 28.49 41.52 29.54 40.47 30.18C39.68 30.66 39.65 31.13 39.66 31.92L39.74 37.8C40.63 38.09 41.39 38.57 41.84 39.39C42.61 39.11 43.35 38.84 44.14 38.61L47.63 37.57C48.35 37.36 48.8 36.92 48.96 36.16C49.26 34.7 50.24 33.68 51.64 33.21C53.59 32.55 55.67 32.22 57.7 32.6C59.04 32.85 60.03 33.92 59.83 35.27L59.84 35.29Z"/>
</mask>
<path d="M77.59 33.82C77.48 31.95 77.67 30.13 78.15 28.34C74.2 25.27 73.12 21.1 69.83 17.46C67.48 14.86 63.98 14.16 60.81 15.68C58.27 16.9 56.12 18.71 54.38 20.94C53.77 21.72 53.16 22.41 52.66 23.28C52.04 24.38 52.74 25.93 51.53 27.52C49.66 29.98 47.73 32.35 45.53 34.6C46.84 32.04 48.94 30.2 50.25 27.59C48.13 29.48 46.86 32 44.74 33.94C46.1 31.76 47.95 29.26 49.24 27.35C49.34 27.21 49.13 26.91 49.08 26.97L48.91 27.17L44.02 33.48C45.25 30.85 47.22 28.9 48.39 26.24L43.22 32.9C43.78 31.52 48.05 24.52 48.99 24.07L51.37 22.92C52.13 22.55 52.52 21.62 53.01 20.92C54.73 18.49 55.94 15.83 56.42 12.91C56.99 9.42 55.43 6.2 52.26 4.65C50.85 3.96 49.38 3.56 47.84 3.16L43.27 1.96C41.76 1.56 40.39 0.8 39.06 0C34.94 2.79 30.03 2.63 25.87 4.65C22.7 6.19 21.13 9.43 21.7 12.92C22.2 15.99 23.51 18.73 25.33 21.25C25.75 21.84 26.09 22.62 26.74 22.93L29.13 24.08C30.09 24.54 34.15 31.24 34.9 32.88C32.95 30.89 31.78 28.31 29.73 26.24C30.9 28.92 32.89 30.9 34.11 33.51L29.06 26.97C28.91 27.08 28.77 27.18 28.77 27.18C28.77 27.18 28.87 27.33 28.89 27.36L33.42 33.98C31.29 32.06 30.04 29.53 27.88 27.61C29.19 30.21 31.31 32.07 32.6 34.62C30.37 32.35 28.46 29.99 26.6 27.54C25.37 25.92 26.09 24.23 25.48 23.29C23.35 20.05 20.54 17.07 16.95 15.53C14.02 14.27 10.82 14.92 8.59 17.19C5.28 20.55 3.98 25.31 0 28.35C1.34 33.07 -0.129999 37.07 0.290001 41.84C0.610001 45.44 3.12 48.18 6.69 48.81C9.72 49.34 12.74 49 15.69 48.08C16.45 47.84 17.4 47.78 17.95 47.22L19.95 45.18C20.62 44.49 28.54 42.61 30.06 42.47C27.5 43.73 24.75 44 22.17 45.35C22.25 45.72 31.34 42.79 30.27 43.49C30.24 43.51 30.11 43.6 30.02 43.63L22.83 46.13C22.71 46.17 22.54 46.39 22.61 46.44C22.66 46.47 22.83 46.53 22.89 46.52L30.6 44.26C28.08 45.68 25.32 46.09 22.85 47.54C25.73 47.1 28.15 45.69 30.96 45.22C28.12 46.64 25.32 47.7 22.43 48.73C20.49 49.42 19.08 48.22 18.03 48.49C14.33 49.45 10.62 51.26 8.06 54.11C5.99 56.41 5.48 59.56 6.81 62.35C7.35 63.47 8 64.49 8.79 65.45L12.31 69.71C13.44 71.08 14.29 72.56 14.92 74.27C16.74 74.4 18.44 74.7 20.13 75.37L25.6 77.53C26.62 77.93 27.66 78.16 28.74 78.31C31.78 78.73 34.63 77.31 36.19 74.69C38.26 71.19 38.56 67.77 38.57 63.76C38.57 62.56 37.1 61.12 37.03 60.28C36.79 57.53 37.26 52.94 37.62 50.01C38.06 52.81 37.44 55.5 37.94 58.44C38.54 55.65 38.13 52.91 38.65 50.09C38.99 52.77 38.59 55.68 39.05 58.4C39.27 57.77 39.3 57.2 39.31 56.61L39.44 50.18C39.5 50.23 39.59 50.3 39.65 50.34L40.05 58.1C40.05 58.23 40.19 58.37 40.23 58.37C40.27 58.37 40.4 58.22 40.4 58.15V50.41C40.47 50.15 40.49 50.1 40.62 50.13L41.06 55.45C41.2 57.09 41.3 58.71 41.1 60.34C40.99 61.27 39.54 62.51 39.57 63.9C39.6 65.34 39.62 66.71 39.8 68.13C40.11 70.57 40.82 72.89 42.12 74.94C43.79 77.56 46.73 78.81 49.78 78.27C54.33 77.47 58.22 74.44 63.22 74.28C63.89 72.51 64.81 70.94 66.01 69.49L69.17 65.67C70.01 64.65 70.72 63.6 71.3 62.41C72.67 59.61 72.17 56.43 70.08 54.1C67.53 51.25 63.9 49.52 60.21 48.49C59.1 48.18 57.65 49.41 55.71 48.72C52.82 47.7 50.03 46.62 47.18 45.2C49.98 45.67 52.41 47.09 55.29 47.51C52.77 46.09 50.03 45.63 47.51 44.24L55.24 46.5C55.32 46.52 55.58 46.44 55.54 46.36C55.52 46.3 55.37 46.15 55.26 46.11L47.77 43.46C50.58 43.71 53.08 45.1 55.99 45.3C53.4 44.17 50.85 43.59 48.3 42.65C48.16 42.58 48.15 42.56 48.29 42.45C51.3 43.07 54.2 43.74 57.09 44.65C59.84 45.52 58.75 46.87 60.88 47.6C64.02 48.67 67.22 49.24 70.52 48.95C73.52 48.68 76.14 47.03 77.26 44.2C77.87 42.66 78.01 40.99 77.9 39.33L77.56 33.82H77.59ZM59.84 35.29C59.49 37.69 55.39 39.48 53.22 40.03C52.09 40.32 50.96 39.91 50.07 39.2C49.7 38.91 49.2 38.64 48.74 38.48L42.3 40.68C42.37 41.6 41.99 42.46 41.51 43.17L43.46 45.93C44.12 46.86 44.78 47.82 45.51 48.72C47.1 49.23 48.3 48.35 49.92 50.08C50.77 50.99 51.37 52.06 51.92 53.19C52.56 54.49 52.99 55.92 52.68 57.37C52.39 58.7 50.93 59.29 49.69 58.88C47.57 58.18 45.87 56.34 44.63 54.58C42.83 52.03 44.97 50.09 44.36 49.29L40.35 43.97C39.41 44.34 38.63 44.27 37.74 43.99L33.68 49.4C33.75 51.3 35.04 52.41 33.44 54.64C32.28 56.27 30.93 57.7 29.14 58.62C28.01 59.2 26.65 59.2 25.82 58.16C24.26 56.2 26.57 52.1 27.94 50.35C28.86 49.17 30.22 48.74 31.68 48.88C32.23 48.93 32.69 48.7 33 48.27L36.62 43.15C36.04 42.44 35.79 41.59 35.8 40.65L29.37 38.45C27.71 39.06 27.04 40.6 24.69 39.95C22.28 39.29 16.98 36.88 18.52 33.87C19.72 31.53 24.76 32.51 26.94 33.4C29.53 34.46 28.85 37.04 29.96 37.39L36.28 39.33C36.79 38.47 37.5 38.06 38.37 37.81L38.44 31.92C38.44 31.17 38.4 30.62 37.64 30.18C36.58 29.56 35.71 28.49 35.61 27.18C35.43 24.9 35.96 19.12 39.16 19.23C42.14 19.34 42.66 24.91 42.49 27.17C42.39 28.49 41.52 29.54 40.47 30.18C39.68 30.66 39.65 31.13 39.66 31.92L39.74 37.8C40.63 38.09 41.39 38.57 41.84 39.39C42.61 39.11 43.35 38.84 44.14 38.61L47.63 37.57C48.35 37.36 48.8 36.92 48.96 36.16C49.26 34.7 50.24 33.68 51.64 33.21C53.59 32.55 55.67 32.22 57.7 32.6C59.04 32.85 60.03 33.92 59.83 35.27L59.84 35.29Z" stroke="white" stroke-width="2" mask="url(#path-1-inside-1_2467_260)"/>
</svg>
